<?xml version="1.0" encoding="UTF-8"?>
<svg id="Layer_2" data-name="Layer 2" xmlns="http://www.w3.org/2000/svg" viewBox="0 0 133.2 159.72">
  <defs>
    <style>
      .cls-1 {
        fill: #362e2c;
        stroke-width: 0px;
      }
    </style>
  </defs>
  <g id="Layer_1-2" data-name="Layer 1">
    <path class="cls-1" d="m99.79,12.16c2.06,2.65,2.48,4.62,2.57,12.42.09,8.39-.51,12.93-2.83,18.76-.86,2.05-1.8,4.54-2.14,5.48-.34.94-1.46,3.08-2.31,4.71-.94,1.71-2.4,4.45-3.17,6.25-.86,1.71-1.63,3.17-1.71,3.34-.26.09-.86,1.2-1.54,2.31-1.97,3.77-4.54,7.62-12.42,19.01-4.2,6.17-14.56,18.07-16.79,19.44-.43.17-1.28,1.03-1.97,1.71-1.28,1.46-2.57,2.74-6.08,5.65l-2.48,2.06-.34,2.74c-.77,4.63-.94,10.19-.6,18.5.34,8.56.6,10.45,1.37,9.59.34-.34.43-.17.51.94,0,1.03.17,1.37.77,1.71.68.34.77.51.68,1.71-.09.77-.17,1.46-.26,1.54-.26.43-2.66.26-3.25-.17-.34-.26-.69-.34-.86-.26-.26.34-2.31-1.37-3.17-2.57-1.8-2.66-2.74-8.56-2.83-17.9-.09-3.68,0-7.79.09-8.99.09-1.2.09-2.23.09-2.31-.09-.09-1.11.26-2.31.77-2.66,1.11-4.63,1.03-5.57-.34-.43-.51-1.03-.86-1.46-.86-.68,0-.68-.09-.43-.77.17-.51.43-.68,1.03-.6,1.71.51,9.08-3.85,9.34-5.48.09-.51.26-3.17.34-6.08.34-6,1.2-15.67,1.71-19.1.17-1.28.6-5.14.86-8.56.34-3.43.94-8.82,1.37-11.91.51-3.08,1.11-7.54,1.46-9.85.34-2.4,1.11-6.77,1.8-9.68,1.03-4.28,1.2-5.4.86-5.91-.17-.26-.51-.43-.6-.26-.17.17-.17-.09-.09-.43.17-.43.6-2.23.94-4.03.43-1.88,1.11-4.11,1.63-5.22.51-1.03,1.46-3.17,2.06-4.8,1.71-4.62,1.88-5.05,2.23-5.05.17,0,.26-.17.17-.34-.17-.17.17-.69.77-1.11.94-.77,1.11-.77,2.48-.43,2.06.6,3.25,1.28,3.85,2.31.43.69.43.86,0,1.71-.17.51-.51.94-.68.94s-.86,1.63-1.54,3.68c-.77,2.06-1.54,4.28-1.8,5.05-.77,1.89-1.54,5.05-1.88,7.45-.17,1.11-.51,2.91-.86,3.94-.86,2.66-2.31,11.31-2.14,13.19,0,.86-.09,1.71-.34,1.97-.26.34-.43,1.11-.34,1.88,0,.69-.26,2.83-.6,4.71-.34,1.8-.69,4.97-.77,7.02-.09,2.06-.34,5.05-.51,6.59-.17,1.54-.34,3.25-.43,3.94,0,.6-.09,1.28-.17,1.46s-.09.86-.09,1.46c-.09.6-.26,1.97-.43,3.17-.51,2.74-.77,4.45-1.28,10.54-.17,2.74-.43,5.4-.51,5.91l-.17.94.68-.77c.43-.43,1.2-1.11,1.8-1.46.51-.43,1.63-1.46,2.4-2.4.69-.86,2.23-2.48,3.34-3.68,2.83-3.08,4.8-5.23,6.77-7.79.94-1.2,2.06-2.65,2.48-3.08,1.28-1.46,7.02-9.51,9.25-13.02,8.82-13.62,12.59-20.3,16.45-29.29,3.51-8.22,4.63-13.45,4.54-21.41-.09-3.77-.26-5.4-.6-6.34-.77-2.14-1.03-2.91-.68-2.74.6.34.51,0-.34-1.71-1.2-2.4-2.14-3.6-3.94-4.8-1.71-1.2-6.08-2.91-6.34-2.57-.09.09-.43.09-.69,0-.86-.43-8.57.09-10.88.6-3.68.94-8.05,2.23-9.16,2.83-.6.26-2.23,1.11-3.6,1.8-3.17,1.63-5.82,3.34-6.68,4.37-.43.69-1.11,1.03-2.14,1.2-.09,0-.77.69-1.54,1.54-.69.86-1.63,1.63-1.97,1.8-.43.17-1.28.86-2.06,1.46-.69.68-1.46,1.2-1.71,1.2-.17.09-.34.17-.34.34s-.86,1.11-1.88,2.14c-1.03,1.03-2.74,2.91-3.85,4.2-1.11,1.2-2.06,2.31-2.23,2.31s-4.8,6.17-7.97,10.71c-1.63,2.23-5.48,8.82-9.51,16.1-2.4,4.28-5.48,10.96-6.6,14.39-.51,1.46-1.46,4.03-2.14,5.74-1.37,3.25-3.34,10.62-4.2,15.76-.34,1.89-.51,4.71-.51,7.79,0,4.2.09,4.97.51,5.4,1.2,1.37,5.48,1.11,7.28-.34.51-.43.86-.94.77-1.11-.17-.26.09-.43.43-.43s.94,1.03.94,1.28c.6,2.06-.34,4.03-2.23,4.71-2.66.94-4.2,1.03-5.74.26-1.37-.69-4.28-3-4.54-3.6-.09-.17-.34-.51-.51-.77-.26-.26-.86-1.97-1.28-3.68-.6-2.66-.77-3.85-.77-6.34.26-14.22,8.56-36.06,20.98-55.16,4.45-6.77,9.76-13.71,13.36-17.56,5.31-5.4,7.54-7.54,10.96-10.28,2.57-1.97,3.43-2.66,3.43-2.4,0,.09-.69.69-1.63,1.37-.86.6-1.63,1.37-1.8,1.63q-.17.43.26.09c.6-.69,3.85-3.08,5.74-4.2.77-.51,1.37-1.11,1.37-1.37,0-.6,2.48-2.23,2.65-1.71.17.6,1.88-.34,1.88-1.11q0-.51.26-.09c.34.51.43.26.34-.43-.09-.51.51-.34.69.17.09.26.17.17.17-.26s.17-.6.34-.43c.17.17.51,0,.6-.26.17-.43.26-.43.26-.09.09.69.69.51.69-.26-.09-.43,0-.51.26-.09.26.43.34.34.6-.26.17-.34.26-.51.34-.26,0,.69.6.6.6-.09s.6-.77.6-.09c0,.26.26.09.51-.34.34-.6.43-.68.69-.17.26.43.43.26.34-.51,0-.17.17-.26.43-.26.26-.08.43.17.43.43.09.26.26.17.51-.26.26-.51.6-.6,1.03-.51.34.17.6.09.6-.17,0-.17.26-.34.6-.43.34,0,.6.17.69.43,0,.17.09.26.26.09.17-.09.26-.34.17-.6-.17-.17.09-.26.51-.34.43,0,.86.17.94.43q.17.34.17,0c0-.26.26-.34.51-.26s.43,0,.43-.17c0-.26.43-.51.94-.51s.86.09.94.34c0,.17,1.97.17,4.37.17,4.97-.17,9.08.69,12.51,2.48,2.4,1.2,6.51,4.8,7.37,6.42.34.69,1.2,1.88,1.88,2.74ZM8.91,73.75c-.26,0-.68,1.28-1.28,3.77-.43,1.88-.51,2.57,0,1.11.09-.51.51-1.8.94-2.74q.69-2.14.34-2.14Zm.69-1.28c0-.34-.17-.43-.26-.34-.17.08-.17.34-.09.51.26.51.34.43.34-.17Zm1.03,1.03c-.09-.08-.26.09-.34.43q-.17.6.17.26c.17-.26.26-.6.17-.69Zm27.67-48.48c-.94.86-7.11,8.05-7.11,8.31.09.17.69-.26,1.28-1.03.34-.34.6-.51.77-.34.09.09.43-.26.77-.86,1.11-1.97,2.57-3.85,3-3.85.17,0,.69-.69,1.11-1.46.77-1.28.77-1.37.17-.77ZM63.47,5.31c-.69-.09-5.74,2.48-8.82,4.45-7.2,4.45-15.85,11.99-20.73,18.07-1.28,1.54-.69,1.11,1.88-1.63,2.06-2.14,4.54-4.54,5.57-5.48,1.03-.86,1.88-1.63,2.06-1.63.09,0,1.8-1.37,3.68-3,4.37-3.85,6.42-5.4,8.14-6.08.77-.26,1.71-.77,2.06-1.2.43-.34,1.8-1.11,3-1.71,3-1.46,3.6-1.8,3.17-1.8Zm-28.09,112.38c0-.43-.26-.43-1.11,0-.51.26-.51.34.26.34.51,0,.86-.17.86-.34Zm3.77-2.4c-.17,0-.69.26-1.11.6-.34.26-.51.51-.43.51.26,0,.69-.26,1.11-.6.43-.26.6-.51.43-.51Zm.09-95.68c.51-.43.94-.94.94-1.03,0-.26-1.2.68-1.54,1.37-.26.43,0,.26.6-.34Zm.34,3.94c-.51.34-.6.6-.09.6.09-.08.34-.17.43-.43.09-.17,0-.26-.34-.17Zm1.88-5.82c.09,0,.26-.26.51-.6.17-.34.26-.6.17-.6s-.34.34-.51.6c-.17.34-.26.6-.17.6Zm17.05-8.91c-.43,0-7.79,4.97-10.02,6.77-2.91,2.4-6.34,5.48-6.34,5.65,0,.34,1.37-.34,2.23-1.2.51-.51,1.28-1.03,1.8-1.2.6-.17.77-.43.51-.6-.51-.26-.34-.43,1.54-.94.43-.17.77-.51.77-.77s-.09-.26-.34.09c-.17.26-.51.43-.69.43s0-.17.26-.43c.34-.26.69-.43.77-.43s.43-.34.86-.77c.69-.86,2.23-2.05,4.2-3.34.6-.34,1.28-.77,1.54-.94.26-.17,1.03-.77,1.8-1.28.68-.6,1.2-1.03,1.11-1.03Zm-15.59,107.75c-.26,1.11-.43,10.19-.34,14.13.17,4.11.94,10.28,1.63,12.51.51,1.54.94,2.23.51.77-.51-1.8-1.03-6.25-1.2-9.94-.17-3.08,0-13.36.26-17.22,0-1.03-.69-1.2-.86-.26Zm1.63-10.79c.17-2.14.77-8.31,1.2-13.7.43-5.31,1.11-11.56,1.46-13.96.34-2.31.51-4.63.34-5.14-.09-.43-.09-.86.09-.86s.26-.26.09-.51c0-.26.09-1.97.34-3.85.26-1.8.6-4.37.69-5.74.17-1.28.6-4.54,1.11-7.2.43-2.66.69-4.71.6-4.54-.43.51-1.46,6.42-2.14,11.39-.34,2.57-.94,6.94-1.28,9.76-1.03,7.45-1.88,16.1-1.63,16.62.09.34,0,.51-.17.51s-.26.26-.17.51c.17.34-.09,2.57-.34,4.97-.34,2.4-.69,5.74-.77,7.28-.17,1.54-.34,4.2-.43,5.82-.17,1.71-.26,3.17-.17,3.25.51.6.94-1.03,1.2-4.63Zm.94,31.35c0-.51-.17-.94-.34-.94s-.17.43-.09.94c.17.51.26.94.34.94s.09-.43.09-.94Zm-.26-9.17c-.17.26-.26,1.89-.17,3.85.09,3.08.09,3.25.26,1.46.09-1.2.17-2.91.26-3.85,0-1.37,0-1.8-.34-1.46Zm.69-8.31c.17-1.88.34-3.77.34-4.28.09-.51,0-.77-.17-.6-.17.17-.34.69-.26,1.11,0,.51-.17,1.8-.34,2.91-.34,1.97-.43,4.62-.17,6.59.09,1.11.34-.86.6-5.74Zm-.17,20.3c-.09-.09-.17.17-.09.51,0,.43.09.51.17.26.09-.34.09-.6-.09-.77Zm.17-40.69c-.09-.26-.17-.08-.17.43.09.51.17.77.17.51.09-.26.09-.68,0-.94Zm.77,7.54q-.09-.51-.34-.09c-.34.77-.34,1.28.09,1.03.09-.17.26-.6.26-.94Zm.26,14.9c0-.51-.09-.6-.26-.09-.34.77-.34,1.2,0,.94.17-.09.34-.51.26-.86Zm-.17-17.65c-.09-.26-.17-.08-.17.43s.09.77.17.51c.09-.26.09-.69,0-.94Zm.43,16.19c0-.08-.17-.08-.26-.08-.17,0-.34.17-.34.34,0,.26.17.34.34.17.17-.09.26-.34.26-.43Zm-.43,13.79c-.09-.6-.17-.26-.09.77,0,1.03.09,1.54.17,1.03.09-.43,0-1.28-.09-1.8Zm.17-14.65c.17-.17.17-.86.09-1.54-.09-1.2-.17-1.2-.26.34,0,.86.09,1.37.17,1.2Zm.26-4.8c-.09-.09-.17.17-.17.51,0,.43.09.51.17.26.09-.34.09-.6,0-.77Zm.17,26.47c-.09-.17-.17.08-.17.43q.09.51.26.26c0-.26,0-.6-.09-.69Zm.51-38.89c-.09-.26-.17-.08-.17.43.09.51.17.69.17.43.09-.26.09-.6,0-.86Zm.09-10.28c.17-.26.17-.6.09-.86-.09-.34-.17-.09-.26.43-.09.6-.09.77.17.43Zm.17,53.19c-.09-.08-.17.09-.09.51,0,.43.09.51.17.17.09-.26,0-.51-.09-.69Zm.94-60.21c.09-.09-.09-.69-.17-1.46-.26-1.29-.86-1.46-.77-.09,0,.69.77,1.8.94,1.54Zm49.59-47.02c-.09.17-.51,1.2-1.03,2.23-2.31,5.82-2.83,6.94-3.85,8.39-.69.94-1.28,1.54-1.28,1.54-.09-.09.34-1.11.94-2.31.51-1.11.94-2.23.86-2.23-.09-.17-1.11,1.88-2.4,4.45-1.2,2.57-2.65,5.31-3.17,6.17-1.28,1.97-1.03,1.11,1.2-3,1.03-1.89,1.8-3.6,1.8-3.77,0-.34-2.14,3.51-4.54,8.22-1.46,3-1.71,3.51-1.11,3.08.26-.26.26-.17.17.17-.09.17-.34.34-.43.17-.43-.17-1.03.86-.77,1.28.09.17-.34.86-.86,1.46-.6.51-1.03,1.2-1.03,1.37,0,.69-3.94,7.02-6.68,10.62-3.6,4.8-4.71,6.6-4.71,7.54-.09.6-.34,1.28-.77,1.63-.94.86-1.71,1.88-2.91,3.94-.6.94-1.63,2.05-2.23,2.4-1.37.86-2.91,2.4-5.14,5.05-3.08,3.68-5.14,5.82-6.51,6.94-3.68,2.91-5.91,5.57-5.4,6.51.17.26,3-2.14,5.22-4.45.86-.86,1.63-1.46,1.8-1.54.17,0,.6-.26.86-.6.34-.43.6-.51.6-.26s-.77,1.03-1.63,1.71c-.94.69-1.88,1.54-2.06,1.97-.17.34-.94,1.2-1.8,1.88-1.46,1.03-3.17,2.91-3.08,3.34,0,.26.17.08,1.46-.94.6-.51,1.2-.94,1.28-.94.17,0,.51-.26.77-.68.86-1.03,2.4-2.57,3.25-3.17.51-.34,1.11-.94,1.46-1.28.26-.43,1.2-1.37,2.06-2.14,2.91-2.74,10.02-10.79,12.76-14.65,4.37-5.82,10.02-13.96,10.54-15.16.26-.51,1.11-1.8,1.8-2.83,1.63-2.31,6.68-11.22,7.79-13.7.43-.94,1.2-2.23,1.54-2.83.43-.6,1.28-2.31,1.88-3.85.51-1.54,1.37-3.51,1.8-4.45.51-.86.86-1.8.86-2.14s.09-.43.26-.34c.34.26.34.17.43-1.2,0-.34.17-1.37.34-2.14.34-1.37.17-2.14-.34-1.46Zm-49.59,48.48c-.17-.17-.17.09-.17.43.09.43.09.51.26.26,0-.26,0-.6-.09-.69Zm1.54-9.08c0-1.2-.17-.94-.34.69-.17.94-.09,1.2.09.77.17-.34.34-.94.26-1.46Zm.68-4.71c0-.43-.17.09-.34,1.11-.17,1.03-.34,2.05-.34,2.23.09.6.77-2.57.68-3.34Zm-.26-4.97c-.09-.09-.17.17-.17.51.09.43.17.51.26.26.09-.26,0-.6-.09-.77Zm.51-3.94q0-.77-.26,0c-.34,1.03-.34,1.37,0,1.11.17-.17.34-.6.26-1.11Zm-.43-3.08c.17.34.6-.43.6-.94,0-.17-.17-.08-.43.17-.17.26-.26.6-.17.77Zm.17-4.03c.09.43.17.6.26.26,0-.26,0-.6-.09-.69-.09-.17-.17.09-.17.43Zm.34-1.88c0,.69.09.86.17.43,0-.34.17-.6.34-.43.09,0,.09-.51,0-1.2-.17-1.2-.26-1.28-.43-.68-.09.43-.17,1.28-.09,1.88Zm1.11-5.82s.34-.77.69-1.71c.26-.94.6-2.4.69-3.08.17-.77.34-1.8.43-2.31.09-.6.09-.86-.09-.51-.6.6-2.14,7.62-1.71,7.62Zm.86,6.94c.17-.94.26-1.8.17-1.8-.17,0-.51,1.37-.77,2.91-.26,1.63.17.77.6-1.11Zm6.25-47.71c-.09,0-.43.17-.69.34-.26.26-.34.43-.17.43s.51-.26.77-.43c.26-.26.34-.34.09-.34Zm8.31-2.91c-.17-.17-4.71,1.54-5.31,2.06-.86.51-.09.34,2.74-.77,1.46-.6,2.65-1.2,2.57-1.28Zm1.46-.51c-.6.26-.17.26,1.11.09,1.11-.17,2.06-.34,2.06-.43.26-.26-2.23,0-3.17.34Zm4.03,75.8l.68-.69-.51.94c-.34.51-.69,1.03-.69,1.11s-.09,0-.09-.17c0-.26.26-.77.6-1.2Zm.86-76.74c-.94.09-1.03.17-.6.34q.86.43,1.37,0c.34-.26.17-.34-.77-.34Zm18.24,43.25c.86-1.8,1.28-3.17,1.11-3.17s-1.88,3.86-2.06,4.63c-.34.94.26,0,.94-1.46Zm1.54-2.4c0,.17.17.26.34.09.17-.09.26-.34.26-.6,0-.17-.17-.26-.34-.09-.09.09-.26.43-.26.6Zm5.48-5.74l-.43,1.2.6-.94c.34-.51.51-1.11.51-1.2,0-.69-.26-.26-.68.94Zm1.97-25.95c-.68,0-.94,0-.68-.08.34-.17.86-.17,1.28-.09.34.09.09.17-.6.17Z"/>
    <g>
      <path class="cls-1" d="m81.74,104.25c.22,1.3.14,3.6-.43,5.62-.14.58-.36,1.44-.5,1.94-.22.86-.43,1.44-1.44,3.74-.29.65-.65,1.22-1.22,1.8-.72.72-.94.86-1.51.94-.36.07-.94.07-1.22.07-1.08-.22-2.59-.86-3.1-1.37-.72-.72-1.3-1.66-1.58-2.52-.29-.86-.5-3.17-.43-4.32.14-1.44.86-5.11,1.44-6.98.29-1.08.5-1.94.5-2.02-.07-.14.07-.29.29-.29.29-.07.36-.14.29-.36,0-.22.07-.43.29-.58.43-.29.43-.43,0-.43-.5-.07-.29-.22.86-.5.58-.07,1.08-.22,1.08-.29.07-.07.43-.14.94-.14.58,0,.86.07,1.22.29.43.29.43.43.29.65s3.31-.79,4.25,4.75Zm-9.5,9.79c-.14-.5-.29-1.15-.36-1.58,0-.36-.07-.58-.14-.58-.14.14.07,1.8.36,2.52.36,1.01.43.72.14-.36Zm6.84-9.87c-.07-1.01-.29-2.02-.36-2.16-.14-.22-.5-.36-1.22-.5-.58-.14-1.01-.22-1.08-.22s-.29.36-.5.86c-1.15,2.23-2.3,8.28-2.09,10.73.07.79.58,2.66.94,3.24l.14.36.72-.72c.36-.43.86-1.15,1.15-1.73.94-1.8,1.87-4.61,2.23-6.48.22-1.22.22-1.8.07-3.38Z"/>
      <path class="cls-1" d="m102.2,102.31c-.07.36-.22.72-.29.72s-.14.22-.07.36c0,.22,0,.36-.07.43-.14,0-.14.07-.07.22.07.07,0,.14-.07.14-.07.07-.07.22,0,.36.07.22.07.29-.07.22-.22-.14-.22,0-.07.29.07.29.07.43-.07.36-.07-.07-.07.07,0,.29.07.22,0,.43-.07.43s-.14.14-.14.29-.14,1.08-.36,2.02c-.22,1.01-.5,2.38-.65,3.02-.14.72-.5,2.3-.79,3.53-.22,1.22-.65,3.17-.94,4.39-1.01,4.9-2.02,7.42-3.6,9.22-1.58,1.73-3.02,2.38-4.54,1.87-.43-.14-.72-.22-.72-.22,0,0-.29-.14-.65-.29-.65-.36-1.94-1.37-1.94-1.58-.07-.07-.29-.5-.58-.86-.5-.86-1.08-2.74-1.51-5.18-.43-2.52-.58-9.22-.36-14.4.07-1.22.14-3.89.29-5.91.29-7.49.79-15.26,1.15-17.5.36-2.3.65-5.47.58-6.19-.07-.29.14-1.51.43-2.66.36-1.15.72-2.95.86-3.96.29-2.3,1.01-4.61,1.37-4.46.14.07.43-.07.58-.36q.29-.36.58-.07c.22.29.29.29.65.07.29-.22.5-.22,1.15.22.72.43,1.44,1.22,1.51,1.8,0,.07-.36,1.01-.72,2.09-.43,1.01-.72,1.94-.72,2.09,0,.07-.22,1.01-.5,2.02-.29,1.01-.58,2.09-.65,2.45-.22.94-.65,4.46-.58,4.82,0,.14-.14.94-.36,1.73-.14.79-.36,2.16-.43,3.02-.07.79-.22,2.16-.36,2.95-.29,1.44-.58,4.9-.72,7.92,0,1.08-.07,2.3-.14,2.81,0,.5-.07,1.3-.07,1.73v1.15c-.07.36-.36,6.7-.36,8.21,0,.43,0,2.38.14,4.82.07,2.23.5,6.41.94,8.21.36,1.73,1.01,3.17,1.44,3.1.72-.07,2.23-2.3,3.17-4.68.29-.72.58-1.44.65-1.58.58-1.15,1.66-4.54,2.16-6.77.22-1.08.5-2.52.72-3.17.14-.72.5-2.3.79-3.53.43-2.02.86-3.53.94-3.17,0,.14-.22,1.37-.58,2.81-.29,1.44-.58,2.74-.5,2.95,0,.43-.22,1.37-.43,1.37-.07,0-.07.14,0,.22.07.14.07.22-.07.22-.07,0-.14.22-.22.36,0,.14,0,.29.14.22.07-.14.14-.07.14.07.07.5.29-.14.86-2.45.29-1.3.58-2.45.65-2.59,0-.07.22-.79.36-1.58.22-1.01.29-1.22.36-.86.07.22,0,.65-.14.79-.07.22-.14.43-.14.5.07.36-.14,1.73-.43,2.52-.14.5-.43,1.51-.58,2.23-.14.65-.43,1.66-.58,2.09-.14.72-.22.79-.22.29,0-1.08-.29-.43-.58,1.15-.5,2.59-1.37,6.26-1.58,6.84-.14.36-.22.65-.14.65.07.14.94-2.02.86-2.3,0-.22.07-.36.14-.36.14-.14.58-2.38.5-3.02,0-.07.07-.14.14-.07.14.14.5-.72,1.08-2.74,1.44-5.11,1.87-6.7,1.87-6.91-.07-.07,0-.22.14-.36.07-.07.07.07,0,.43-.07.29-.07.65-.07.79,0,.29.86-3.53,1.22-5.47q.22-1.37.43-.94c.14.29.22.36.22.14s.07-.43.22-.58c.22-.36.22-.22.07.79Zm-17.43,9.43c.07.29.07.36.14.22,0-.14,0-.36-.07-.5-.07-.14-.07,0-.07.29Zm.07,1.51c0,.43.07.65.07.36s0-.65-.07-.79c-.07-.22-.07,0,0,.43Zm0,1.73c0,.43.07.58.07.36.07-.14,0-.5-.07-.72-.07-.14-.07,0,0,.36Zm.14,2.45c0-.29-.07-.79-.14-1.15-.07-.29-.07,0,0,.58.07.65.14.86.14.58Zm.22,3.96c0-.58-.14-1.51-.22-2.02-.07-.5,0,0,.07,1.08.14,1.15.22,1.58.14.94Zm2.88,4.75c-.72-1.87-1.37-8.35-.94-9.5.14-.5.14-.72,0-.5-.22.14-.22-1.8-.07-2.09.07-.14.07-.36,0-.43-.07-.14-.07-1.15-.07-2.23.07-1.15,0-3.02-.07-4.1-.07-1.8-.14-3.24-.14-4.39-.07-.65-.14-1.15-.29-.94-.14.29-.29,1.87-.29,3.24,0,.65-.07,1.22-.14,1.22-.22.07-.43-.79-.29-1.01.14-.07.14-.29.07-.43-.07-.22-.14-.5-.07-.72.07-.22.07-.72.07-1.08,0-.94.07-1.3.14-1.66v-1.44c0-.65.07-1.22.14-1.37.07-.22.07-.36,0-1.66-.07-.58,0-.79.29-.94.14-.07.29-.22.29-.29v-.5c.07-.14,0-.29-.07-.29-.14,0-.22.14-.14.29,0,.22-.07.36-.22.36-.07,0-.14-.22-.07-.5v-.72q0-.29.14-.07c.29.43.36-.36.22-2.23-.07-1.01-.07-2.16,0-2.66,0-.5.07-.94,0-1.01-.14-.14-.36,2.81-.22,3.02,0,.14,0,.22-.07.29-.14.07-.22,1.8-.58,8.57-.07,1.58-.14,3.6-.22,4.39-.07,1.22-.14,5.26-.14,9.5,0,1.44.29,4.32.36,3.38,0-.22.07-.43.14-.43.22-.07.43,1.94.22,2.09-.07.07-.22-.07-.22-.43-.14-1.01-.36-.72-.29.36.07,1.3.72,4.46,1.08,5.54.22.5.43,1.08.5,1.44.14.5.79,1.3,1.01,1.22,0,0-.07-.22-.14-.5-.36-.72-.29-1.01,0-.58.29.36.29.29.07-.22Zm-1.8-.72c-.36-.86-.65-1.8-.72-2.23q-.07-.58-.07-.14c-.07.5.43,2.3.86,3.31.58,1.22.5.5-.07-.94Zm-.72-12.67c0-.14.07-.29.14-.29s.07-.29,0-.58c-.07-.29-.07-1.01,0-1.51l.14-.94.07,1.44c0,.86,0,1.58-.14,1.8s-.22.22-.22.07Zm.5,3.31c.07.5,0,.86-.07.94-.14,0-.22-.65-.29-1.73-.07-1.08-.07-1.87.07-2.02.14-.29.14-.07.14.86,0,.58.07,1.51.14,1.94Zm-.29-6.91c-.07-.14-.07-.36,0-.5.07-.14.14-.58.07-1.08,0-.5,0-.94.07-.94.22,0,.22,1.08.07,2.3,0,.36-.07.43-.22.22Zm.79-12.53c-.07-.14-.14,0-.07.29,0,.29.07.36.07.22.07-.14,0-.36,0-.5Zm.29,4.39c-.14,0-.14.07-.07.29.07.22.14.5.22.65.07.72.14,0,.29-2.3.07-1.44.07-2.52,0-2.66-.14-.22-.14-.14-.14.07s0,.43-.14.43c-.07.07-.07.65-.07,1.3.07.65,0,1.15-.07,1.15s-.07.29,0,.65c.07.36.07.5,0,.43Zm.36-4.61c.22,0,.36-.14.36-.43-.07-.14-.07-.65-.07-1.08.07-.58,0-.79-.14-.79s-.14.14-.07.36c.07.14.07.36-.07.43-.07.07-.07.29-.07.58,0,.22,0,.58-.14.72q-.07.22.22.22Zm-.14,6.91c-.07-.07-.14.07-.07.22,0,.29.07.36.07.14.07-.14,0-.36,0-.36Zm.5,10.87c-.07-.22-.14-.29-.14-.14-.07.07-.22.29-.29.36-.07.14,0,.14.14.14s.29-.22.29-.36Zm-.36-20.45c.07.07.22.14.29.07.07-.07.07-.22,0-.36-.07-.07-.14-.07-.22-.07-.14.07-.14.22-.07.36Zm.29,17.14c0-.43-.07-.65-.14-.58-.14.22,0,1.58.14,1.44.07-.07.07-.43,0-.86Zm.22-9c-.07.29-.14,1.15-.22,1.87-.22,1.37-.22,2.66.07,2.45.07-.07.07-.65.07-1.3,0-.58.07-1.66.14-2.3.07-.65.07-1.22.07-1.22-.07-.07-.14.14-.14.5Zm-.36-9.22c0,.14.07.22.22.07.07-.07.14-.14.14-.22s-.07-.07-.22-.07c-.07,0-.14.14-.14.22Zm.22,16.92c.07-.29.07-.86,0-1.22l-.07-.72-.07.79v1.22q.07.36.14-.07Zm-.07-17.79q0,.5.14.14c.07-.29.07-.72,0-1.01q-.07-.65-.14-.14c0,.29-.07.79,0,1.01Zm0,15.05c0,.22.07.22.07.07.07-.14,0-.29,0-.36-.07-.07-.14.07-.07.29Zm11.52-2.09c0-.07.07-.43.14-.72.07-.29.22-.43.22-.29,0,.07-.07.43-.14.72-.14.29-.22.43-.22.29Zm.72-3.46c0-.29.14-.65.14-.86.14-.22.14-.14.07.22,0,.29-.07.72-.14.86-.07.22-.14.14-.07-.22Zm11.81,31.39c-.14.79-1.73,1.08-3.17.58-1.87-.58-3.6-3.6-4.25-7.2-.65-3.82-1.22-13.61-1.01-17.57.07-1.66,0-2.45-.14-2.59v-.22c0-.36,0-.65.07-.94.07-.72.07-1.73.07-2.09v-1.01c0-.14.07-1.08.14-2.88.22-.36.5-1.8.5-2.95,0-1.51-.14-1.51-.29.14,0,.29-.07.65-.14,1.01,0-.43.07-.86.07-1.3-.07.22-.07.36-.14.43-.29.72-.36.58-.07-.43.07-.29.22-1.22.36-2.23.07-1.87.22-4.1.36-6.62,0,.14-.07.36-.07.58-.22,1.15-.5,2.38-.58,2.74-.29,1.22-.79,3.96-.94,4.82-.22,1.44-1.22,5.91-1.37,5.98-.07,0-.07.22,0,.43.07.29,0,.58-.29.94-.22.29-.36.79-.43,1.08,0,.29-.07.58-.14.58s.14-1.44.58-3.24c.36-1.8.79-3.38.94-3.6.07-.14.36-1.44.58-2.81.22-1.37.5-2.81.58-3.24.07-.36.14-.86.14-1.01,0-.07.07-.22.14-.22s.07-.14,0-.36c-.07-.14,0-.29.07-.29s.14-.14,0-.22c-.07-.14,0-.43.14-.72.07-.29.14-.65.14-.86,0-.14,0-.29.14-.29.07,0,.14-.58.22-1.15,0-.65.22-1.51.36-1.94.14-.43.22-.86.07-1.15-.07-.22-.07-.36.07-.43.07,0,.14.07.22.14,0-.22.07-.58.14-.94v-.14c-.07-.14-.07-.29,0-.29s.14-.43.07-.86c-.07-.5,0-.79.14-.72.07.07.14,0,.07-.14-.07-.5.07-1.44.29-1.3.07.07.14,0,0-.29-.14-.5.43-2.81.72-3.1,0-.07,0-.22.07-.29v-.36c-.07,0-.07-.07,0-.22,0-.22.07-.43,0-.58l.07-.07c.14-1.01.29-2.16.36-3.02.58-4.32.58-4.9.22-4.61-.22.22-.29.22-.14-.36.07-.36.36-1.22.58-1.87.14-.65.5-1.73.65-2.38.36-1.37.72-1.94,1.8-2.38l.72-.36.65.5c.65.58.65.65.58,1.58,0,.58-.36,2.52-.65,4.39-.29,1.87-.65,4.39-.79,5.62-.07,1.22-.22,2.66-.36,3.17-.07.58-.22,2.02-.36,3.24-.07,1.15-.36,3.46-.58,4.97-.14,1.51-.43,3.74-.5,4.9-.14,1.15-.36,3.02-.5,4.25-.22,2.09-.65,7.34-.94,11.38-.14,2.45-.14,10.51,0,14.19.22,4.9.72,9.36,1.37,11.45.43,1.51,1.15,2.95,1.94,3.67.5.43.29.65-.29.29-.29-.22-.5-.29-.5-.22s-.22-.14-.5-.58c-.29-.43-.58-.79-.72-.79-.65,0,.65,1.37,1.58,1.73.58.22.72.22,1.37.29.43,0,.5.07.5.36Zm-10.37-38.02c-.07-.07.07-.65.22-1.3.14-.72.36-1.73.5-2.38.07-.58.14-1.08.22-1.01.07.07-.29,2.45-.65,3.67-.14.65-.29,1.15-.29,1.01Zm1.01,6.05c0-.22.14-1.08.29-1.87.29-1.58.65-2.38.58-1.3-.07,1.01-.65,3.46-.79,3.53-.07,0-.14-.14-.07-.36Zm1.15-3.74c0,.65-.07,1.22-.07,1.8-.07,0-.07.07-.07.07-.07,0-.22.29-.22.65-.07.5-.14.5-.14.14,0-.29.07-.94.29-1.51.07-.29.14-.72.22-1.15Zm0,2.74c-.07-.22-.14-.07-.14.29,0,.43.07.58.14.36v-.65Zm.58,8.71c0-.29-.07-.36-.14-.36-.14.07-.14.29-.07.43.14.43.22.36.22-.07Zm0-14.19c0-.07-.07-.22-.14-.22-.07.14-.07.22-.07.29.07.07.07.14.14.14s.07-.07.07-.22Zm.65,22.9c-.14-1.37-.14-11.45,0-15.55.07-1.94.07-2.23-.07-1.44-.22,1.01-.36,14.98-.22,17.07,0,.65.14,1.15.22,1.15.14,0,.14-.43.07-1.22Zm1.94,9c.14.86.36,1.3.5,1.22.07-.14,0-1.01-.29-2.38-.36-1.58-.43-2.3-.36-2.95.14-.43.07-2.09,0-4.03-.22-3.38-.29-13.1-.14-15.12.07-.65.14-1.87.22-2.74.22-2.88.65-8.14.86-9.43.07-.65.14-1.44.14-1.8,0-.29.14-1.73.29-3.17.43-3.89.5-4.1.58-5.33.07-.72.07-1.15-.07-1.15-.29,0-.36.58-.5,2.02,0,.72-.07,1.22-.14,1.37-.07,0-.14.36-.14.65,0,.36-.07.5-.14.5-.14-.07-.22.14-.22.65,0,.58-.07.79-.29.79-.36,0-.36.14-.07.65.22.22.22.65,0,1.73-.14.79-.29,1.37-.36,1.37-.07-.07-.14.14-.14.43,0,.36,0,.43.14.22.29-.5.36-.07.14.79-.14.5-.22,1.08-.22,1.3,0,.14-.07.36-.14.43s-.07.29,0,.58c.22.58.07,1.15-.22,1.01-.07-.07-.14.14-.07.43.14.43.07.5-.07.29-.14-.29-.22-.22-.22.22,0,.29.07.58.22.58s.22.14.22.29-.14.29-.29.29c-.14-.07-.22.22-.29.58,0,.43,0,.65.14.58.36-.22.22.36-.07.65-.14.14-.29.5-.22.79q0,.5.14-.07c.14-1.08.36-.22.22,1.22-.07,1.08-.14,1.37-.36,1.3-.14-.07-.22.07-.22.22,0,.22.07.29.14.29.07-.07.22,0,.29.14.14.58.14.79-.14.5-.29-.22-.29-.14-.29.29,0,.29.07.5.14.5.14,0,.14,2.23.14,5.69,0,3.24-.07,5.69-.22,5.69-.07,0-.07.14.07.29.14.14.22.86.22,1.66,0,.72.07,2.09.14,3.02.14,1.22.14,1.8,0,1.87-.14.07-.07.22.07.43.29.36.36.65.29,1.73,0,.79,0,1.44.07,1.44s.29.72.5,1.51Zm-1.15-25.85c.07-.14.07-.36,0-.43-.07-.07-.14.07-.14.29.07.22.07.29.14.14Zm.14-10.37c-.07-.07-.07,0-.07.22,0,.29.07.29.14.14,0-.14,0-.29-.07-.36Zm1.01-3.1c.14,0,.22-.07.22-.22,0-.07-.07-.14-.22-.07-.22.14-.22.29,0,.29Zm.86,41.55c-.14-.36-.36-.58-.5-.5-.22.22-.22.36.29.94.5.58.58.36.22-.43Zm0-49.11c0-.14-.07-.07-.07.22s.07.36.07.22c.07-.07.07-.29,0-.43Zm.65-1.66c0,.22.07.29.14.14.07-.22,0-.36,0-.43-.07-.07-.14.07-.14.29Zm.14.65c-.07-.14-.07-.07-.07.22s0,.36.07.22v-.43Z"/>
      <path class="cls-1" d="m132.54,111.45l-.86.94-.22,2.02c-.22,2.09-.36,3.17-.86,5.83-.14.94-.43,2.45-.58,3.46-.29,2.02-.72,4.39-1.3,7.2-.58,2.52-.86,4.32-1.22,5.98-.14.72-.43,2.16-.72,3.1-.29.94-.65,2.09-.79,2.59-.58,2.23-3.1,7.63-4.82,10.37-1.58,2.45-4.54,5.62-5.83,6.26-1.15.58-1.66.65-2.95.36-.79-.22-1.15-.36-1.73-.94-.36-.36-.65-.86-.72-1.08-.07-.22-.29-.65-.43-.94-.22-.29-.58-.86-.79-1.3-.36-.65-.43-.86-.22-1.08.14-.14.22-.65.22-1.37-.07-3.1,1.94-10.95,4.32-16.63,1.15-2.81,3.1-6.84,4.18-8.71.29-.43.5-.86.5-.94s.22-.43.5-.79c.22-.36,1.01-1.51,1.66-2.52,2.09-3.24,4.32-5.98,6.26-7.92.94-.86,1.66-1.73,1.66-1.87s.07-1.08.22-2.09c.14-2.23.14-2.16,0-6.77-.07-5.26-.43-7.99-1.08-10.08l-.22-.58-.22.43c-.07.22-.14.5-.14.72q.07.29-.07.07c-.14-.22-.22-.14-.14.14.07.22.07.36,0,.29-.07-.07-.14.07-.14.29s-.14.79-.36,1.3c-.14.43-.29.86-.29.86.07.07-.94,4.18-1.58,6.41-.58,2.09-2.3,6.48-3.1,7.78-.43.79-1.44,3.02-1.44,3.17s-.14.22-.36.22c-.14,0-.5.14-.72.29-.72.43-1.44.58-2.02.29-.36-.14-.79-.22-1.01-.22-.43,0-.65-.22-1.87-1.58-1.3-1.44-1.8-2.88-2.02-5.9-.07-1.15-.22-2.16-.36-2.3-.14-.22-.22-.94-.22-1.51,0-.22.07-1.15.14-2.16,0-1.01.14-1.94.22-2.02.07-.14.14-.36.07-.58-.07-.22.07-.43.43-.72.43-.43,1.37-.72,1.37-.43,0,.07.14.07.36,0,.29,0,.43,0,.5.22.07.14.22.14.36.14.22-.07.29,0,.29.43,0,.29.07,1.37.07,2.3.07,1.01.07,2.95.14,4.39.07,2.88.5,6.05.86,7.06.36.72.5.65,1.22-.5.22-.43.65-1.01.94-1.22.94-.94,3.1-6.19,4.9-11.88.43-1.44,1.22-3.67,1.37-3.67,0,.07-.07.43-.22.86-.14.5-.29.86-.22.86.07.07.29-.58.58-1.37.29-.79.79-2.09,1.08-2.81.36-.79.58-1.44.58-1.44-.07,0-.43.72-.79,1.51-.36.86-.72,1.51-.79,1.44,0,0,.22-.65.58-1.37.79-1.66,1.22-3.31,1.01-3.53-.14-.14,0-.43.58-.86.58-.65.72-.79.58-1.22-.07-.36,0-.5.14-.43.14.07.29,0,.43-.07.14-.14.22-.14.22.07,0,.14.07.29.22.22.36-.14.65.43.58,1.01,0,.36.07.58.14.58.43,0,.79,1.01,1.51,3.82,1.01,4.18,1.01,3.96,1.37,7.42.22,2.09.36,4.25.36,6.48,0,3.31,0,3.46.29,3.17.58-.5.79-.5.65-.14-.07.29,0,.36.29.36s.22.14-.5.86Zm-20.88,30.67c.14-.5.29-.86.36-.86s.29-.29.43-.72c.14-.36.36-.65.43-.65s.07.29-.07.65c-.58,1.3-1.58,5.33-1.37,5.47.14.14,1.08-2.52,1.08-3.02,0-.29.14-.86.29-1.3.43-1.37.58-2.09.29-2.09s-.29-.36-.07-.65q.14-.22.29-.07c.14.29.72-.86.72-1.37,0-.14.07-.29.22-.29.07,0,.14-.14.07-.22-.07-.14,0-.29.07-.29s.14-.22.22-.5c.07-.36.29-.72.36-.94.14-.14.22-.43.22-.65s.14-.5.29-.58c.14-.14.22-.36.22-.5,0-.07.29-.72.65-1.37.36-.72.79-1.66,1.08-2.23.5-1.01,1.15-1.87.86-1.22,0,.14,0,.29.14.36.14.07.29-.07.36-.14.07-.14.07-.22-.07-.14-.07,0-.14.07-.14,0,0-.14,1.08-2.09,1.22-2.3.29-.29.5-.86.29-.79-.07.07-.43.72-.86,1.37-.36.72-.72,1.22-.79,1.22-.07-.07,1.22-2.3,2.81-4.82.79-1.22,1.44-2.38,1.44-2.59,0-.14.07-.29.22-.36.07-.07.22-.14.22-.29s.07-.29.22-.36c.14-.07.43-.36.58-.72.22-.36,1.15-1.51,2.02-2.52.94-1.01,1.73-1.94,1.66-2.02-.07-.22-2.88,2.74-3.82,4.03-.43.5-.94,1.15-1.22,1.51-2.45,2.59-8.28,12.96-9.5,16.99-.07.36-.36,1.08-.5,1.58-1.22,3.46-1.66,4.75-2.52,8.42-.14.79-.36,1.44-.36,1.58-.07.14-.07.22,0,.22.14,0,.29-.36.36-.79.29-1.08,1.3-4.97,1.66-6.05Zm-.36,4.18c-.07-.07-.07.07-.07.22,0,.22,0,.29.07.14.07-.14.07-.29,0-.36Zm6.55,5.18c-.07-.22,0-.43.22-.58.22-.22.36-.43.36-.5s-.29.07-.5.36c-.72.79-.65.58.07-.58,2.23-3.53,5.04-11.23,5.9-16.27.14-.65.43-2.02.65-3.1.65-3.31,1.01-5.11,1.37-7.27.22-1.08.43-2.23.58-2.52.07-.29.29-1.37.43-2.38.22-.94.36-1.94.43-2.16.07-.58-.14-.58-.58,0-.65.79-2.23,2.74-2.45,2.95-.36.36-.79,1.22-.65,1.3,0,.07.29-.29.65-.79.36-.5,1.08-1.37,1.58-1.94l1.01-1.08-.58,1.08c-.36.58-.94,1.44-1.3,1.94-.43.5-.94,1.3-1.3,1.8-2.81,4.18-2.95,4.46-4.25,6.91-3.1,5.83-4.68,9.72-6.55,16.2-1.01,3.53-1.73,7.92-1.51,9.29.14,1.3.43,2.52.5,2.66.07.07.65-.22,1.22-.58.22-.14.36-.22.36-.22,0,.07-.29.36-.65.58-.65.43-.94.86-.36.65.14-.07.36-.14.43-.14s.29-.22.43-.43c.22-.14.5-.43.72-.5q.29-.14-.14.36l-.5.5.58-.36c.29-.29.72-.65.86-.86q.22-.43-.07-.14c-.22.14.14-.29.72-.86,1.58-1.8,2.38-2.95,2.3-3.31Zm-4.32,6.26h-.43c-.36,0-.5.07-.29.29.07.07.72-.14.72-.29Zm1.15-.94c-.14,0-.94.72-.94.94s.5.07.79-.22c.36-.43.43-.72.14-.72Zm1.58-1.22c-.22.14-.36.43-.36.5,0,.14-.07.22-.22.14-.07-.07-.14,0-.14.07s-.07.22-.22.22-.29.07-.29.22c0,.22.07.22.14.14,0-.14.22-.22.36-.22.36,0,.79-.43.94-1.01q.14-.43-.22-.07Zm-.22-21.31c-.07,0-.14.07-.22.22-.14.22-.07.29.07.07.14-.07.14-.22.14-.29Zm1.37,19.87c-.14.07-.29.29-.36.5,0,.22,0,.36.14.22.14-.07.14-.14.14-.22-.07,0,0-.14.07-.29.22-.22.22-.29,0-.22Zm.29-23.55c-.07.07-.14.22-.14.29,0,.22.14.14.22-.14.07-.14.07-.22-.07-.14Zm3.17,18.94c-.07-.07-.29.22-.5.58-.22.36-.43.58-.5.58q-.14-.07-.07,0c0,.14-.07.43-.22.79-.22.29-.36.5-.36.43s-.07-.07-.22.07c-.14.07-.22.29-.14.43.07.14,0,.22-.07.14-.14-.07-.29.07-.5.36l-.29.5.43-.36.36-.36-.22.36c-.07.22-.22.43-.36.5-.07.07-.22.29-.36.43-.07.22.14.07.43-.29.36-.36.58-.72.58-.86.07-.07.07-.22.22-.22.14-.07,1.87-3.02,1.8-3.1Zm-2.66,2.88c-.22.14-.29.29-.29.43,0,.22.14.14.36-.29q.14-.29-.07-.14Zm-.14-23.26c-.14.07-.14.29-.07.5.14.5.22.43.22-.14,0-.36-.07-.5-.14-.36Zm.79,24.99c-.07,0-.22.07-.29.29-.14.07-.14.22-.14.22.07,0,.22-.14.29-.22.14-.22.22-.29.14-.29Zm0-3.53c-.14.14-.29.5-.36.79-.14.65.14.29.36-.43.22-.5.22-.58,0-.36Zm.5-.72c-.07-.07-.14,0-.22.22q-.07.22.07.07c.14-.14.22-.29.14-.29Zm1.87-4.32c-.07,0-.14.22-.22.5-.07.22-.43,1.15-.86,2.02-.72,1.44-.79,1.87-.14.86.14-.22.43-.86.65-1.37.22-.5.5-1.01.58-1.15.22-.43.22-.86,0-.86Zm-1.22,6.84c-.14.14-.29.29-.29.43,0,.22.14.14.36-.29q.22-.29-.07-.14Zm.79-1.37c-.14.14-.22.36-.22.43,0,.22.07.14.29-.36.22-.36.22-.43-.07-.07Zm.43-27.22c-.07,0-.14.07-.14.14,0,.14.07.14.14.14.14-.07.14-.14.14-.22s0-.07-.14-.07Zm.14,24.77c.14-.14.22-.29.14-.29s-.14.14-.29.29c-.07.22-.14.36-.07.36,0,0,.14-.14.22-.36Zm.58.14c-.07,0-.58,1.08-.58,1.3s.22,0,.43-.65c.14-.36.22-.65.14-.65Zm.14-4.54c.22-.5.43-1.08.58-1.37s.29-.79.29-1.08q.14-.58-.07-.29c-.14.14-.43.86-.65,1.51-.14.65-.43,1.3-.5,1.44-.07.22-.14.5-.14.72s.07.29.07.14c.07-.14.29-.65.43-1.08Zm.5,1.87c0-.29-.29,0-.43.36q-.07.43.14.07c.14-.14.29-.36.29-.43Zm-.07,1.87c-.07,0-.14.14-.29.36-.07.14-.14.29-.07.29,0,0,.14-.14.22-.29.14-.22.14-.36.14-.36Zm.5-3.17c.22-.5.86-2.45.86-2.74,0-.36-.14.07-.65,1.3-.22.72-.5,1.44-.58,1.66-.22.43.07.29.36-.22Zm-.14-23.26c-.29.36-.29.5-.07.29.14-.14.36-.36.43-.5.29-.5.07-.36-.36.22Zm.22,21.24c.07-.14.14-.36.14-.5s-.07-.14-.14.07c-.22.43-.22.72,0,.43Zm-.07-43.71c-.07,0-.07.07-.07.29,0,.14,0,.22.07.07.07-.14.07-.29,0-.36Zm.36,47.16c0-.29-.29.07-.36.43q-.07.36.14.07c.14-.22.22-.43.22-.5Zm0-48.03c0-.14-.07-.14-.14.07-.22.5-.22.72,0,.43.07-.14.14-.36.14-.5Zm.65,41.4c.22-.94.58-2.23.79-2.95.22-.72.5-1.87.65-2.59.07-.72.22-1.15.29-1.01.14.29.5-1.66.58-3.1,0-.72.07-1.15.22-1.22s.29-.72.43-1.58c.07-.79.22-2.02.36-2.81.14-.65.43-2.38.65-3.74.22-1.44.5-2.88.58-3.31.14-.36.22-1.15.29-1.58l.14-.79-.43.29c-.5.5-.58.72-1.08,3.53-.22,1.51-.5,3.1-.65,3.67-.65,2.95-1.01,4.9-1.94,9.87-.07.5-.22,1.37-.36,2.02-.22.65-.43,1.73-.5,2.38-.14.65-.43,1.73-.58,2.52-.22.72-.36,1.44-.36,1.58,0,.43.29.22.36-.14,0-.14.07-.07.07.14.14.36.22.07.5-1.15Zm-.29,5.18c-.22.72-.36,1.15-.29,1.15s.22-.36.36-.72c.29-.79.22-1.15-.07-.43Zm2.38-51.34c-.43.86-1.37,3.31-1.3,3.46.07.07,0,.14-.14.22-.22.07-.29.22-.22.5.07.22.07.36,0,.36-.14-.14-.58,1.15-.58,1.51,0,.43.65-.72,1.15-2.16.36-.86.79-2.09,1.08-2.74.5-1.22.5-2.09,0-1.15Zm-.07,43.78c-.07.36-.22.94-.29,1.37-.22.86-.94,3.31-1.22,4.1-.29.58-.58,1.73-.43,1.58.07-.07.43-1.08.79-2.23.72-2.09,1.15-3.89,1.3-4.9q.07-.43-.14.07Zm-1.94,3.74q0,.29.14.14c.07-.14.14-.43.14-.65q0-.29-.14-.07c-.07.14-.14.43-.14.58Zm.5-1.73c0,.14-.14.36-.22.58q-.14.36.14,0c.07-.14.22-.43.22-.58,0-.22-.07-.22-.14,0Zm3.17-9.87c-.07-.65-1.51,6.41-1.51,7.06,0,.5.22-.22.58-2.16.22-1.15.58-2.66.65-3.24.14-.58.29-1.37.29-1.66Zm.07-1.51s-.07.07-.07.22c0,.22.07.29.07.14.07-.14.07-.29,0-.36Zm.22-.72c-.07-.14-.07,0-.07.22s0,.29.07.22v-.43Zm.22-1.37c-.14.29-.22,1.22-.14,1.08.07-.07.14-.36.22-.79.07-.43.07-.58-.07-.29Zm.43-2.38c-.22.79-.36,1.66-.43,1.8s0,.14.14.07c.07-.14.29-.86.43-1.73.36-2.09.22-2.16-.14-.14Zm.14-10.66c.29-.22.36-.5.36-2.09.07-1.22,0-1.73-.07-1.51-.14.22-.22.58-.22.94,0,.58-.29.86-.36.43-.07-.22-.07-.07-.14.29,0,.29,0,.94-.07,1.37-.14.86,0,.94.5.58Zm.14.5c-.14,0-.22.14-.29.22-.07.07-.07.14.07.14.07,0,.22-.07.22-.14.07-.07.07-.22,0-.22Zm.22,7.92c-.07,0-.07.07-.07.22,0,.22,0,.29.07.14.07-.14.07-.29,0-.36Zm.14-.72c0-.14-.07,0-.07.22s.07.29.07.22c.07-.14.07-.36,0-.43Zm.5-3.6c-.07-.07-.07.07-.07.22,0,.22.07.22.07.07.07-.07.07-.22,0-.29Z"/>
    </g>
  </g>
</svg>