<?xml version="1.0" encoding="utf-8"?>
<!-- Generator: Adobe Illustrator 28.0.0, SVG Export Plug-In . SVG Version: 6.00 Build 0)  -->
<svg version="1.1" id="Layer_2_00000139977717649778954070000008221476285333809073_"
	 xmlns="http://www.w3.org/2000/svg" xmlns:xlink="http://www.w3.org/1999/xlink" x="0px" y="0px" viewBox="0 0 1708.1 1978.4"
	 style="enable-background:new 0 0 1708.1 1978.4;" xml:space="preserve">
<style type="text/css">
	.st0{fill:#FFFFFF;}
</style>
<g id="Icons">
	<g>
		<path class="st0" d="M1293.1,912.6c-3.3-217.5-131.3-434.2-407.2-434.2S513.3,660.6,513.3,660.6l141.2,98.5
			c0,0,49.2-110,224.9-110s230.7,137.1,236.4,211.8c0,0-89.5-10.7-200.3-10.7c-220.8,0-423.6,122.3-423.6,322.6
			s160.9,333.3,383.4,333.3s380.1-155.2,409.6-407.2c0,0,156.8,85.4,156.8,267.6s-166.6,427.7-570.5,427.7s-686.3-222.5-686.3-785.6
			s268.4-806.6,670.7-806.6s570.5,180.2,672.3,479.9l164.2-41.9C1547.6,164.8,1197.9,26,855.6,26S13.3,210.8,13.3,1010.3
			s495,955.5,852.1,955.5s719.3-210,741.3-564.8C1626.4,1082.6,1375.2,949.6,1293.1,912.6L1293.1,912.6z M876.9,1336.2
			c-108.4,0-216.7-43.5-216.7-154.3s121.5-161.7,264.3-161.7s195.4,20.5,195.4,20.5C1112.5,1272.2,985.3,1336.2,876.9,1336.2
			L876.9,1336.2z"/>
	</g>
</g>
</svg>
