<?xml version="1.0" encoding="UTF-8"?>
<svg id="Layer_2" data-name="Layer 2" xmlns="http://www.w3.org/2000/svg" viewBox="0 0 2581.7 2581.7">
  <defs>
    <style>
      .cls-1, .cls-2 {
        stroke-width: 0px;
      }

      .cls-2 {
        fill: #fff;
      }
    </style>
  </defs>
  <g id="Icons">
    <g>
      <rect class="cls-1" width="2581.7" height="2581.7" rx="574.83" ry="574.83"/>
      <rect class="cls-1" width="2581.7" height="2581.7" rx="574.83" ry="574.83"/>
      <path class="cls-2" d="m1731.26,1207.55c-3.28-217.54-131.34-434.25-407.16-434.25s-372.68,182.24-372.68,182.24l141.19,98.51s49.25-110,224.92-110,230.67,137.09,236.42,211.79c0,0-89.48-10.67-200.3-10.67-220.82,0-423.58,122.31-423.58,322.61s160.89,333.28,383.36,333.28,380.07-155.15,409.62-407.16c0,0,156.79,85.37,156.79,267.61s-166.64,427.68-570.52,427.68-686.27-222.46-686.27-785.59,268.43-806.59,670.67-806.59,570.52,180.25,672.31,479.87l164.18-41.87c-144.48-475.3-494.18-614.06-836.49-614.06s-842.23,184.74-842.23,984.28,495,955.52,852.09,955.52,719.32-210.01,741.26-564.77c19.7-318.51-231.49-451.49-313.58-488.43Zm-416.19,423.58c-108.36,0-216.72-43.51-216.72-154.33s121.49-161.72,264.33-161.72,195.37,20.52,195.37,20.52c-7.39,231.49-134.63,295.52-242.98,295.52Z"/>
    </g>
  </g>
</svg>