<?xml version="1.0" encoding="UTF-8"?>
<svg id="Layer_2" data-name="Layer 2" xmlns="http://www.w3.org/2000/svg" viewBox="0 0 1140.11 296.47">
  <defs>
    <style>
      .cls-1 {
        font-family: Nereida-Thin, Nereida;
        font-size: 160px;
        font-weight: 200;
      }

      .cls-2 {
        font-family: PlayfairDisplayItalic-Black, 'Playfair Display';
        font-size: 30px;
        font-variation-settings: 'wght' 900;
        font-weight: 800;
      }

      .cls-3 {
        stroke: #000;
        stroke-miterlimit: 10;
      }

      .cls-4, .cls-5 {
        stroke-width: 0px;
      }

      .cls-6 {
        letter-spacing: -.02em;
      }

      .cls-7 {
        letter-spacing: -.04em;
      }

      .cls-5 {
        fill: #fff;
      }

      .cls-8 {
        letter-spacing: 0em;
      }

      .cls-9 {
        letter-spacing: -.01em;
      }

      .cls-10 {
        letter-spacing: -.12em;
      }
    </style>
  </defs>
  <g id="Layer_1-2" data-name="Layer 1">
    <g>
      <path class="cls-4" d="M642.84,55.9h-37.44v-1.28h80.32v1.28h-37.44v109.92h-5.44V55.9Z"/>
      <path class="cls-4" d="M779.32,109.02h-71.2v56.8h-5.44V54.62h5.44v53.12h71.2v-53.12h5.44v111.2h-5.44v-56.8Z"/>
      <path class="cls-4" d="M820.44,117.18v48.64h-5.44V54.62h26.24c24.8,0,42.08,10.56,42.08,31.2s-17.6,32.16-40.16,32.8l.32.8c10.24,26.56,33.47,57.73,67.88,57.96h2.56v5.92c-35.97.85-61.96-35.24-71.72-63.88l-.32-.8h-.96c-6.24,0-14.4-.48-20.48-1.44ZM840.76,117.18c20.96,0,36.48-9.12,36.48-31.36s-15.04-29.92-36-29.92h-20.8v59.84c5.76.96,13.6,1.44,20.32,1.44Z"/>
      <path class="cls-4" d="M937.24,54.62h5.76l42.24,111.2h-5.92l-13.28-35.2h-55.52l-12.96,35.2h-1.44l41.12-111.2ZM965.56,129.34l-27.68-73.12-26.88,73.12h54.56Z"/>
      <path class="cls-4" d="M1002.67,54.62h5.44v109.92h54.88v1.28h-60.32V54.62Z"/>
      <path class="cls-4" d="M1079.79,54.62h5.44v109.92h54.88v1.28h-60.32V54.62Z"/>
    </g>
    <text class="cls-1" transform="translate(0 165.83)"><tspan class="cls-9" x="0" y="0">POL</tspan><tspan class="cls-10" x="285.76" y="0">L</tspan><tspan class="cls-7" x="345.92" y="0">Y</tspan></text>
    <ellipse class="cls-3" cx="521.98" cy="115.03" rx="112.6" ry="114.53"/>
    <path class="cls-5" d="M634.95,120.28c-.87,36.46-13.29,66.25-39.16,90.16-15.62,14.43-34.31,23.12-55.69,25.69-26.63,3.2-51.01-2.9-72.87-18.15-23.49-16.39-37.93-38.96-44.87-65.99-9.11-35.5-3.02-68.75,18.3-98.85,15.96-22.54,37.8-37.16,65.39-43.04,19.13-4.07,37.84-2.28,56.2,4.13,1.96.69,4.11.87,6.07,1.54,2.37.82,5.01,1.48,6.88,2.98,3.28,2.64,6.92,4.63,10.43,6.87,3.17,2.03,6.14,4.44,8.85,7.03,4.31,4.12,8.61,8.32,12.44,12.87,14.27,16.94,23.08,36.36,26.37,58.09.92,6.1,1.23,12.29,1.65,16.67ZM449.94,81.51c-1.18.84-2.37,1.69-3.55,2.53-2.24,1.27-3.28,3.45-4.34,5.58-1.76,3.55-1.69,7.36-1.44,11.17.1,1.51-.48,2.48-1.63,3.47-1.3,1.12-2.58,2.44-3.35,3.94-2.46,4.74-2.94,9.82-2.07,15.05.08.49,0,1.22-.31,1.54-5.83,5.71-7.23,12.84-5.74,20.29,1.84,9.21,7.81,15.72,16.21,20.11,2.44,1.28,4.97,1.66,7.82,1.46,7.43-.51,12.95-6.34,14.54-12.22.92-3.42.36-6.54-1.71-9.42-.25-.34-.46-.71-.69-1.06,2.16,1.65,3.32,3.84,3.42,6.4.2,5.53-2.14,9.96-6.43,13.47-.88.72-2.14,1.33-2.49,2.26-1.65,4.39-1.16,9.15,4.4,11.41-1.69-2.02-3.54-3.76-3.7-6.45-.15-2.65.87-5.7,2.7-6.96-2.75,5.71-1.62,10.34,3.27,14.04.17.13.32.31.44.48.49.69.97,1.39,1.69,2.43-2.75-1.65-5.08-2.97-7.34-4.42-2.83-1.81-4.03-4.81-3.32-8.04.19-.85.46-1.68.61-2.25-2.11.4-4.25.8-6.4,1.2-.01-.06-.02-.12-.04-.19h4.4c-.02.28-.02.49-.04.69-.6,4.54,1.12,7.82,5.44,9.72.76.33,1.54.67,2.19,1.16,1.96,1.48,3.97,2.92,5.74,4.6,1.3,1.24,1.22,2.71.22,3.61-1.04.93-2.64.87-3.91-.23-.71-.62-1.32-1.35-2.07-2.13.21,2.42,1.21,3.73,3.03,4.14,1.82.41,3.78-.49,4.77-2.2.94-1.62.65-3.37-.75-4.91-2.21-2.42-4.39-4.87-6.61-7.29-1.73-1.88-2.01-4.04-1.28-6.37,1.13-3.63,4.12-5.7,7.08-7.79-.41.85-.94,1.62-1.65,2.19-4.53,3.63-4.27,9.14-.71,12.9,1.92,2.03,3.76,4.12,5.65,6.18,1.19,1.29,1.8,2.71,1.24,4.47-.76,2.4-3.3,4.28-5.85,4.33-2.92.05-4.9-1.35-5.82-4.15-.24-.75-.4-1.52-.62-2.39-1.06,2.82-.3,5.03,2.26,6.28,2.66,1.3,5.5,1.47,8.16.13,1.14-.58,2.24-1.66,2.83-2.79,1.82-3.42,1-7.14-1.89-9.77-.59-.54-1.23-1.02-1.97-1.63,5.33,1.28,6.95,5.7,4.8,12.17.78-1.43,1.54-2.91,1.82-4.48.4-2.31-.65-4.31-1.92-6.23-.9-1.37-1.63-2.84-2.44-4.27.14-.1.29-.21.43-.31,2.3,2.86,5.23,4.51,8.96,4.43,3.71-.08,6.52-2.1,9.12-4.5-2.11,4.84-5.19,8.88-9.15,12.31-5.58,4.83-12.28,7.66-19.02,10.44-2.8,1.16-5.56,1.75-8.67,1.4-2.27-.26-4.63.28-6.96.47-.02.19-.05.38-.07.57,1.1,1.2,2.21,2.4,3.3,3.62.91,1.01,1.95,1.64,3.39,1.8,2.3.26,4.59.67,6.87,1.13,13.12,2.63,25.9,6.34,37.49,13.07,8.7,5.05,17.2,10.48,25.53,16.1,3.11,2.1,6.12,1.71,9.59,1.64-12.89-8.64-25.31-17.47-38.84-24.63,8.77,5.9,17.55,11.79,26.32,17.69-.1.15-.2.29-.3.44-.51-.31-1.02-.62-1.53-.93-7.38-4.49-14.64-9.19-22.17-13.42-11.49-6.44-24.03-10.14-36.92-12.8-.98-.2-1.94-.45-2.91-.68.04-.17.08-.33.11-.5,6.48,1.24,12.96,2.49,19.43,3.73-4.28-1.24-8.57-2.48-12.92-3.43-4.36-.95-8.79-1.6-13.19-2.38.8-.14,1.63-.21,2.43-.13,5.25.51,10.54.82,15.74,1.66,4.73.76,9.44,1.82,14.01,3.24,9.04,2.8,16.65,8.22,24.36,13.41,8.48,5.71,17.02,11.35,25.55,16.99.99.65,2.12,1.11,3.18,1.65.06-.11.12-.23.18-.34-.66-.5-1.32-1-1.99-1.49.04-.06.08-.12.12-.19,1.13.53,2.26,1.06,3.4,1.6-4.55-2.94-9.25-5.61-13.78-8.52-8.75-5.62-17.33-11.49-26.12-17.03-8.73-5.5-18.16-9.46-28.51-11-2.15-.32-4.33-.43-6.5-.64.55-.64,1.21-.96,1.88-1.27,3.49-1.63,7.04-3.16,10.47-4.91,7.75-3.96,13.69-9.69,17.22-17.63,2.2-4.95,3.61-10.15,4.13-15.51.38-3.94,2.15-6.38,6.09-7.51,3.55-1.02,7.07-2.21,10.46-3.64,4.95-2.08,8.36-5.6,9.52-10.93.08-.36.24-.69.34-1,.28-.05.44-.07.6-.1,8.09-1.31,14.46-4.72,16.67-13.18.52-1.98,1.67-3.51,3.4-4.65.64-.42,1.26-.89,1.86-1.37.55-.44,1.06-.94,1.59-1.41-4.78,3.81-10.24,4.72-16.16,4.24-2.41-.19-4.87.01-7.29.16-1.57.1-3.12.42-4.68.65.73-.55,1.5-.92,2.29-.99,4.4-.39,8.8-.77,13.21-1.03,3.8-.22,7.22-1.23,10-3.97-4.74,3.6-10.23,2.24-15.5,2.27,2.76-.69,5.61-1.01,8.31-1.83,2.74-.82,5.32-2.14,7.98-3.21,3.57-1.42,5.68-2.95,6.6-4.85-4.06,3.74-9.11,5.29-14.4,6.11-5.1.79-10.07,1.78-14.83,3.88-3.71,1.63-7.66,2.79-11.55,3.98-3.06.93-6.17,1.73-9.31,2.34-8.94,1.75-15.86,6.67-21.84,13.09-3.66,3.93-8.03,6.62-13.43,7.53-3.46.58-6.85.5-9.91-1.5-1.33-.87-1.69-1.63-1.55-3.19,3.86,4.05,8.26,3.44,12.74,1.53,1.82-.78,3.55-1.77,5.24-2.77,3.81-2.26,6.65-5.51,9.28-8.97,3.05-4.01,7.11-6.5,12.15-7.28,2.89-.45,5.82-.69,8.75-.87,5.63-.35,11.07-1.38,16.22-3.71,4.82-2.19,9.64-4.36,15.02-5.01,2.35-.28,4.68-.82,6.97-1.45,1.38-.38,2.65-1.15,4.09-1.8-5.62.73-11,1.43-16.61,2.15,1.15-.96,2.18-1.76,3.14-2.63,3.41-3.1,7.1-5.63,11.77-6.68,2-.45,3.87-1.47,5.8-2.23-2.23.35-4.31,1.33-6.45,1.48-4.5.31-7.65,2.53-10.66,5.57-2.79,2.82-5.9,5.41-9.2,7.65-3.96,2.69-8.36,4.76-13.23,5.38-7.1.9-13.84-.21-20.21-3.64-6.33-3.41-13.14-5.4-20.43-5.54-2.02-.04-4.04,0-6.06,0,9.98-2.24,19.26.47,28.43,3.93.06-.19.12-.38.17-.57-4.16-1.49-8.31-2.98-12.47-4.47.01-.06.03-.11.04-.17,2.56.57,5.13,1.14,7.69,1.71,1.59.53,3.17,1.06,4.76,1.59,3.61,1.31,7.14,2.87,10.84,3.87,6.44,1.75,12.2.19,16.88-4.49,2.12-2.12,4.02-4.48,5.81-6.87,4.67-6.22,10.65-10.3,18.56-11.46,3.33-.49,6.33-1.84,9.2-3.53,2.59-1.53,5.24-2.95,7.89-4.37,2.47-1.32,4.98-2.57,7.47-3.86-.07-.12-.14-.25-.21-.37-.14.06-.28.11-.41.19-6.14,3.68-12.81,4.98-19.89,3.98-4.91-.69-9.77-1.72-14.67-2.52-2.17-.36-4.38-.65-6.39.67-1.36.69-2.72,1.37-4.09,2.06-1.88,1.71-3.98,3.24-5.6,5.16-1.97,2.33-3.58,4.95-5.28,7.49-3.54,5.25-8.45,8.12-14.9,8.44-4.91.24-9.49-.71-13.54-3.12,2.46.55,5.04,1.41,7.69,1.68,7.56.77,14.44-.85,19.38-6.93,3.25-3.99,6.04-8.34,9.03-12.53-2.5,2.11-4.95,4.29-7.34,6.54-1.4,1.32-2.72,2.71-4.03,4.1-5.61,5.94-12.58,7.84-20.53,6.42-2.27-.4-4.43-1.38-6.64-2.09.05-.18.1-.36.15-.54,3.8,1.42,7.72,1.83,11.73,1.64,4.99-.23,9.45-1.76,13.03-5.28,1.88-1.84,3.59-3.84,5.44-5.7,3.01-3.02,5.83-6.28,9.16-8.92,4.77-3.79,10.52-5.53,16.63-4.69,4.62.64,9.12,2.13,13.66,3.26.27.07.5.27.75.41-.04.12-.08.24-.12.36-5.32-.95-10.64-1.89-16.3-2.9.35.45.4.58.47.6,7.99,2.07,16.04,3.83,24.38,3.3,2.01-.13,3.97-.83,5.96-1.27-.03-.19-.06-.37-.1-.56-.52-.03-1.04-.09-1.56-.09-4.72.05-8.64-1.6-11.65-5.2-.63-.76-1.29-1.49-1.92-2.25-2.6-3.1-5.39-5.93-9.73-6.57-.04,0-.06-.16-.15-.45,2.09-.39,3.97.22,5.42,1.42,2.26,1.87,4.37,3.96,6.34,6.13,2.25,2.48,4.61,4.67,8.08,5.34,5.37,1.04,10.28-.15,14.64-3.2,2.5-1.75,4.7-3.93,6.93-6.03.89-.83,1.55-.91,2.03.15.88,1.91,1.91,3.82,2.34,5.84,1.07,5.03-.66,7.12-5.82,7.51-.06,0-.11,0-.17.01-4.92.59-9.77,1.38-13.85,4.45-.96.72-1.76,1.64-2.63,2.46,5.3-3.33,10.99-5.21,17.14-5.81-1.08.39-2.2.66-3.31.95-1.12.3-2.25.57-3.35.93-1.03.34-2.03.78-3.04,1.17,1.06,0,2.01-.3,2.98-.41.66-.07,1.35.16,2.03.25-.13.62-.07,1.39-.43,1.82-1.67,2-3.43,3.95-5.22,5.84-.9.95-1.97,1.75-2.96,2.62.75.08,1.33-.08,1.88-.31,2.09-.85,4.15-1.8,6.28-2.56,1.99-.71,4.06-1.16,6.12-.12.08.04.12.16.23.32-.31.18-.61.35-1.01.57.41.3.79.56,1.34.96-.77.13-1.31.22-1.95.33.46.48.79.84,1.17,1.23-1.11.19-2.03.34-2.95.51-4.6.82-8.98,3-14.24,2.06.8.45,1.29.73,1.79,1-.26.21-.5.4-.67.54,2.06,0,4.16-.35,6.06.1,1.91.45,3.61,1.72,5.83,2.84-1.18.39-2.04.77-2.94.95-.98.2-2,.21-3,.3.03.19.05.39.08.58,1.2-.18,2.4-.37,3.83-.59-.29.56-.45.87-.68,1.32,1.11-.21,2.01-.38,2.93-.56v1.42c.36-.56.61-.95.83-1.29v6.09l.48.06c1.38-1.96,3.42-3.62,2.72-6.7.43.5.64.76,1.06,1.25-.05-.74-.08-1.18-.12-1.69.4.24.68.41,1.06.65-.1-.6-.17-1.04-.28-1.66.57.3.94.5,1.56.83-.65-.84-1.11-1.43-1.56-2.01.07-.1.14-.2.2-.3.63.19,1.27.38,2.04.62-.67-.7-1.22-1.29-1.78-1.87.07-.09.15-.17.22-.26.63.27,1.26.53,2.29.97-.77-.72-1.19-1.11-1.86-1.74,1.28.13,2.2.23,3.13.32,0-.05.01-.1.02-.15-.55-.21-1.1-.42-2.02-.76,3.45-.06,4.65-.84,5.29-3.43.47.92.82,1.63,1.2,2.32,2.65,4.81,5.24,9.64,7.98,14.4.83,1.45,2.18,2.6,3.12,4,1.65,2.45.69,5.27-2.18,6.12-1.39.41-2.94.27-4.42.41-1.09.1-2.17.26-3.46.42.48.66.68.94,1.17,1.62-1.52.09-2.8.48-3.82.13-1.05-.36-1.84-1.44-2.68-2.14-.26,1.95.54,3.2,2.56,3.67.91.21,1.9.2,2.76.53.58.22,1.27.78,1.43,1.32.37,1.27.44,2.62.6,3.72-.86.64-1.65,1.2-2.4,1.8-1.83,1.48-3.58,3.05-5.48,4.44-.94.69-2.05.9-3.26.19-.47-.27-1.36-.09-1.95.15-.27.11-.54.99-.37,1.24.35.53.94,1.01,1.54,1.26.52.21,1.21.14,1.81.06,1.37-.18,2.73-.6,4.09-.59.89,0,1.95.4,2.59.98.29.27-.07,1.51-.45,2.12-.38.61-1.16.98-1.78,1.45-.29.22-.68.34-.89.61-.87,1.12-1.74,2.24-2.52,3.43-.62.95-1.11,1.99-1.75,3.17,2.69-.19,3.4.09,3.87,2.24.41,1.87.58,3.88.37,5.77-.26,2.33-1.74,4.16-4.25,4.35-2.73.21-5.58.32-8.23-.22-11.31-2.31-22.58-4.84-33.84-7.38-6.62-1.5-12.06-4.81-15.73-10.57-.66-1.04-1.23-2.15-1.84-3.22-.1.05-.19.09-.29.14,1.46,3.09,2.91,6.18,4.37,9.27-.12.06-.24.12-.36.18-.79-1.41-1.58-2.81-2.37-4.22-.06.03-.11.06-.17.09.27.79.53,1.58.8,2.37-.12.08-.24.16-.36.24-.9-1.01-1.8-2.02-3.02-3.4.59,2.05,1.04,3.66,1.5,5.26,1.91,6.56,5.18,12.55,8.34,18.57,4.14,7.87,5.05,16.14,3.89,24.82-.62,4.61-.96,9.28-1.11,13.93-.18,5.38,2.02,9.45,7.47,11.44,1.6.58,3.15,1.34,4.66,2.13.64.33,1.28.86,1.63,1.47,1.07,1.82,1.99,3.73,3.01,5.68,1.25-.34,2.44-.67,3.97-1.09-2.83-3.82-5.51-7.43-8.18-11.03.11-.09.23-.17.34-.26,2.62,3.33,5.28,6.62,7.82,10,.62.82,1.11,1.05,2.03.67,3.42-1.39,6.87-2.73,10.28-4.13,1-.41,1.94-.96,2.66-1.33-1.23-1.25-2.84-2.23-3.46-3.64-1.45-3.3-3.94-4.77-7.34-5.33-1.92-.32-3.65-1.13-4.51-2.97-1.67-3.59-4.51-5.19-8.46-5.08-.33,0-.66-.06-.99-.07-2.43-.09-2.99-2.39-4.33-3.71-.38-.37,0-1.62.22-2.42.85-2.97,1.64-5.97,2.71-8.87,1.77-4.78,3.53-9.58,5.71-14.18,2.12-4.47,6.01-7.05,11.02-7.68,3.73-.47,7.5-.61,11.24-.99,3.74-.37,7.5-.68,11.19-1.35,3.11-.56,4.95-2.71,5.7-5.71.75-3.05.38-6.01-.68-8.94-.99-2.74.03-4.91,2.72-6.12,2.23-1.01,2.97-2.37,1.93-4.55-.8-1.68-.5-2.7,1-3.6.28-.17.51-.41.76-.63,2.86-2.5,2.98-3.86.56-6.74-1.48-1.77-1.08-3.48,1.05-4.44,1.11-.5,2.26-.89,3.35-1.41,5.79-2.76,6.37-6.26,2.16-11-2.35-2.64-4.5-5.5-6.32-8.51-2.78-4.59-5.05-9.43-4.58-15.03.23-2.7.45-5.41.58-8.11.09-1.94.02-3.88.02-5.76,9.26-1.72,14.16-6.09,16.1-14.44,1.45-6.25.49-12.13-3.46-17.41-.17,1.08-.33,2.17-.56,3.69-.42-1.31-.69-2.16-.96-3-.09.02-.18.04-.27.07.1,1.14.19,2.27.29,3.41-.89-2.87-1.57-5.76-4.73-7.12,2.08,2.5,2.79,5.32,2.11,8.51-.14-.89-.29-1.77-.5-3.08-.27,1.52-.46,2.56-.65,3.61.07-4.25-1.59-7.71-4.87-10.62-.34-.3-.62-.79-.7-1.23-1.31-7.38-5.55-12.27-12.9-14.41-3.38-.98-6.21-2.51-7.8-5.77-.28-.57-.79-1.05-1.28-1.48-2.03-1.84-6.13-2.43-8.17-1.21-.3.08-.59.15-.89.23-.75.18-1.49.45-2.25.53-9.65,1-19.33.94-29.01.52-8.08-.34-16.14-.38-24.18.79-12.98,1.89-24.31,7-33.61,16.2-1.04,1.03-2.22,1.99-3.49,2.71-4.3,2.43-7.8,5.69-10.76,9.53-6.52,8.46-9.08,18.17-9.24,28.61-.03,1.74.29,3.59-1.56,4.75ZM473.42,212.32c5.56,2.26,11.22,4.32,16.66,6.83,5.39,2.48,10.57,5.41,15.85,8.14-.06.12-.12.23-.19.35-3.77-1.73-7.53-3.46-11.3-5.18,6.07,3.74,12.21,7.29,18.21,11.07,3.78,2.38,7.91,1.47,11.92,1.86-21.78-14.16-44.06-27.12-70.65-30.43,11.19,2.49,22.13,5.78,32.55,10.53,10.44,4.76,20.5,10.18,30.12,17.16-7.3-4.05-14.14-8-21.12-11.67-7.02-3.69-14.41-6.55-22.04-8.65ZM486.33,226.44c.14-.2.29-.39.43-.59-4.34-2.42-8.68-4.83-13.01-7.25.65.08,1.28.24,1.88.46,4.43,1.64,8.61,3.8,12.19,6.81,3.66,3.08,7.74,5.12,12.41,6.15.86.19,1.69.46,2.54.69-2.44-2.1-4.9-4.04-7.51-5.74-2.62-1.71-5.37-3.24-8.12-4.74-2.8-1.53-5.65-2.98-8.54-4.34-2.84-1.34-5.71-2.63-8.63-3.76-2.86-1.11-5.8-1.99-8.71-2.97-.07.15-.14.3-.2.45,4.02,2.8,7.46,6.37,12.29,8.09,2.68.95,5.2,2.39,7.74,3.7,1.79.93,3.5,2.02,5.25,3.04ZM549.95,95.88c-1.79.14-3.48.34-5.17.39-3.71.1-7.34.6-10.32,2.95-1.88,1.49-3.6,3.21-5.18,5.01-3.86,4.41-7.82,8.68-13.41,11.48.37,0,.49.03.58,0,.21-.07.4-.17.6-.26,5.67-2.47,10.41-6.15,14.34-10.81,2.93-3.49,6.49-5.51,11.15-5.95,2.66-.25,5.29-1.08,7.4-2.8ZM558.4,82.66c-3.24-.27-6.49-.48-9.72-.83-3.24-.34-6.46-.83-9.69-1.24-3.23-.4-6.45-1.05-9.63-.22,1.36.13,2.8.17,4.21.41,5.32.91,10.62,1.99,15.96,2.8,2.98.45,6.01.35,8.88-.93ZM496.9,122.46c-7.87.95-14.38,5.43-16.51,11.3,4.53-5.15,10.07-8.87,16.51-11.3ZM553.2,97.65c-1.86,1.1-3.3,2.07-4.85,2.82-1.61.78-3.34,1.34-5.01,2,3.63-.63,7.02-1.73,9.87-4.82ZM506.08,233.81c.14-.18.27-.37.41-.55-2.47-1.72-4.94-3.43-7.4-5.15-.07.1-.14.2-.21.29,2.4,1.8,4.8,3.61,7.2,5.41ZM543.74,94.27c.03.14.06.27.09.41,1.72-.35,3.44-.7,5.15-1.05-.06-.23-.11-.46-.17-.7-1.69.45-3.38.89-5.07,1.34ZM547.23,102.9c2.02-.14,4.52-1.62,5.32-3.05-1.69.97-3.5,2.01-5.32,3.05ZM548.1,104.96c.06.11.13.22.19.33,1.57-1.11,3.14-2.23,4.7-3.34-.08-.11-.16-.22-.24-.32-1.55,1.11-3.1,2.23-4.66,3.34Z"/>
    <text class="cls-2" transform="translate(633.79 225.35)"><tspan x="0" y="0">port</tspan><tspan class="cls-8" x="60.78" y="0">r</tspan><tspan x="75.45" y="0">aits &amp; persona</tspan><tspan class="cls-6" x="283.68" y="0">l</tspan><tspan x="292.65" y="0" xml:space="preserve"> b</tspan><tspan class="cls-8" x="317.61" y="0">r</tspan><tspan x="332.28" y="0">anding</tspan></text>
  </g>
</svg>