<?xml version="1.0" encoding="UTF-8"?>
<svg id="Layer_2" data-name="Layer 2" xmlns="http://www.w3.org/2000/svg" viewBox="0 0 1678.72 1939.8">
  <defs>
    <style>
      .cls-1 {
        fill: #fff;
        stroke-width: 0px;
      }
    </style>
  </defs>
  <g id="Layer_2-2" data-name="Layer 2">
    <g id="Icons">
      <path class="cls-1" d="m1279.77,886.6c-3.28-217.54-131.34-434.25-407.16-434.25s-372.68,182.24-372.68,182.24l141.19,98.51s49.25-110,224.92-110,230.67,137.09,236.42,211.79c0,0-89.48-10.67-200.3-10.67-220.82,0-423.58,122.31-423.58,322.61s160.89,333.28,383.36,333.28,380.07-155.15,409.62-407.16c0,0,156.79,85.37,156.79,267.61s-166.64,427.68-570.52,427.68S171.56,1545.78,171.56,982.65,439.99,176.06,842.23,176.06s570.52,180.25,672.31,479.87l164.18-41.87C1534.24,138.76,1184.54,0,842.23,0S0,184.74,0,984.28s495,955.52,852.09,955.52,719.32-210.01,741.26-564.77c19.7-318.51-231.49-451.49-313.58-488.43h0Zm-416.19,423.58c-108.36,0-216.72-43.51-216.72-154.33s121.49-161.72,264.33-161.72,195.37,20.52,195.37,20.52c-7.39,231.49-134.63,295.52-242.98,295.52h0Z"/>
    </g>
  </g>
</svg>